<svg width="77" height="42" viewBox="0 0 77 42" fill="none" xmlns="http://www.w3.org/2000/svg">
<path d="M1.28438 27.2256C1.28438 26.6528 0.898356 26.3663 0.126317 26.3663V26.0885H3.68957C4.83882 26.0885 5.77331 26.2999 6.49303 26.7226C6.82641 26.8968 7.10426 27.161 7.29507 27.4852C7.48587 27.8094 7.58198 28.1806 7.57249 28.5566C7.57249 29.5313 7.22839 30.2439 6.54019 30.6946C5.76781 31.1683 4.87278 31.4034 3.9673 31.3706C3.55935 31.3712 3.1517 31.3485 2.74636 31.3024V34.3312C2.74636 34.9041 3.16032 35.1905 3.98825 35.1906V35.4683H0.0424805V35.1906C0.87041 35.1906 1.28438 34.9041 1.28438 34.3312V27.2256ZM2.74636 30.7889C2.81615 30.7889 2.92794 30.7959 3.08172 30.8099C3.23536 30.8239 3.35239 30.8309 3.43282 30.8308C5.16204 30.8308 6.02665 30.1094 6.02665 28.6667C6.02665 27.9297 5.77862 27.4049 5.28256 27.0921C4.70235 26.7577 4.03904 26.595 3.36993 26.623C3.07648 26.623 2.8992 26.6562 2.83807 26.7226C2.75499 26.8914 2.72311 27.0808 2.74636 27.2676V30.7889Z" fill="#4C4C4C"/>
<path d="M16.2031 33.8177C16.3575 34.1811 16.5498 34.5271 16.7769 34.85C16.8695 34.9653 16.9886 35.0566 17.1241 35.1159C17.2596 35.1752 17.4075 35.2009 17.5551 35.1906V35.4683H13.9499V35.1906C14.21 35.1979 14.4692 35.158 14.715 35.0726C14.7838 35.0438 14.842 34.9943 14.8814 34.9309C14.9209 34.8675 14.9396 34.7935 14.935 34.719C14.8758 34.3385 14.7592 33.9692 14.5892 33.6238L14.0757 32.3976H10.3657C10.3342 32.5024 10.2399 32.7443 10.0827 33.1233C9.92552 33.5024 9.80761 33.8038 9.729 34.0273C9.65774 34.2133 9.6179 34.4098 9.6111 34.6089C9.6111 34.9967 9.93424 35.1906 10.5805 35.1906V35.4683H7.7666V35.1906C7.95628 35.178 8.13986 35.1185 8.30084 35.0175C8.46183 34.9164 8.59516 34.7768 8.68884 34.6114C9.03219 34.0032 9.33333 33.372 9.59015 32.7225L12.467 25.8947H12.7447L16.2031 33.8177ZM10.6224 31.8212H13.8818L12.2311 27.9331L10.6224 31.8212Z" fill="#4C4C4C"/>
<path d="M18.949 27.2256C18.949 26.6528 18.549 26.3663 17.749 26.3663V26.0885H21.48C22.6852 26.0885 23.6162 26.2981 24.2729 26.7173C24.5888 26.9106 24.8469 27.1853 25.0202 27.5126C25.1935 27.8398 25.2757 28.2077 25.2581 28.5776C25.2741 28.8882 25.2165 29.1982 25.0899 29.4824C24.9634 29.7665 24.7714 30.0167 24.5297 30.2125C23.9938 30.6207 23.3554 30.8728 22.6852 30.9409L25.4939 34.4151C25.6724 34.6328 25.8816 34.8234 26.1149 34.981C26.3369 35.1116 26.5884 35.1837 26.8458 35.1906V35.4683H24.5507L21.1813 31.1138L20.39 31.1348V34.3312C20.39 34.9041 20.804 35.1905 21.6319 35.1906V35.4683H17.749V35.1906C18.549 35.1906 18.949 34.9041 18.949 34.3312V27.2256ZM20.39 30.616C21.5045 30.5707 22.3368 30.4022 22.887 30.1104C23.437 29.8186 23.7121 29.3077 23.7122 28.5776C23.7122 27.9138 23.5052 27.4221 23.0912 27.1026C22.6095 26.762 22.0273 26.5931 21.438 26.623C21.1992 26.6173 20.9602 26.6278 20.7228 26.6545C20.669 26.6589 20.6172 26.6762 20.5715 26.7049C20.5259 26.7337 20.4879 26.773 20.4608 26.8196C20.4031 26.9689 20.379 27.1289 20.39 27.2885V30.616Z" fill="#4C4C4C"/>
<path d="M29.8069 34.3312C29.8069 34.9041 30.2296 35.1905 31.075 35.1906V35.4683H27.082V35.1906C27.9414 35.1906 28.3711 34.9041 28.3711 34.3312V27.2256C28.3711 26.6528 27.9414 26.3663 27.082 26.3663V26.0885H31.1169V26.3663C30.2435 26.3663 29.8068 26.6527 29.8069 27.2256V30.5531C30.212 30.1934 30.6906 29.7672 31.2427 29.2745C31.7945 28.782 32.295 28.3016 32.744 27.8335C33.1928 27.3654 33.4172 27.0336 33.4173 26.8379C33.4292 26.7562 33.4111 26.6729 33.3663 26.6035C33.3215 26.5342 33.2531 26.4834 33.1737 26.4606C32.9356 26.4047 32.6924 26.3731 32.4479 26.3663V26.0885H36.1631V26.3663C35.7554 26.3524 35.3521 26.4541 34.9998 26.6597C34.5964 26.929 34.2239 27.2418 33.8889 27.5925L31.3317 30.1234L33.564 32.4867L34.5072 33.5347C34.8845 33.968 35.1631 34.2798 35.3431 34.4702C35.535 34.6698 35.7558 34.8393 35.9981 34.9732C36.258 35.1191 36.5516 35.194 36.8496 35.1906V35.4683H32.537V35.1906C33.1937 35.1906 33.522 35.0753 33.5221 34.8447C33.5198 34.7463 33.4908 34.6503 33.4382 34.567C33.0924 33.9837 32.4618 33.2396 31.5466 32.3347L30.1737 30.9828L29.8069 31.2815V34.3312Z" fill="#4C4C4C"/>
<path d="M47.6236 35.4683H43.6988V35.1906C44.5267 35.1906 44.9407 34.9041 44.9407 34.3312V26.6911H43.9136C43.5787 26.6813 43.2437 26.7104 42.9155 26.7777C42.6635 26.8525 42.4485 27.0188 42.3127 27.2439C42.0928 27.6294 41.9496 28.0538 41.8909 28.4937H41.5713L41.6551 26.0885H49.662L49.7511 28.4937H49.4052C49.3561 28.0567 49.2188 27.6342 49.0017 27.2518C48.8654 27.0224 48.6472 26.853 48.3912 26.7777C48.0611 26.7106 47.7245 26.6816 47.3878 26.6911H46.3817V34.3312C46.3817 34.9041 46.7957 35.1905 47.6236 35.1906V35.4683Z" fill="#4C4C4C"/>
<path d="M51.1448 27.2256C51.1448 26.6528 50.7448 26.3663 49.9448 26.3663V26.0885H53.6758C54.881 26.0885 55.812 26.2981 56.4687 26.7173C56.7846 26.9106 57.0427 27.1853 57.216 27.5126C57.3893 27.8398 57.4715 28.2077 57.4539 28.5776C57.4699 28.8882 57.4123 29.1982 57.2857 29.4824C57.1591 29.7665 56.9672 30.0167 56.7255 30.2125C56.1896 30.6207 55.5512 30.8728 54.881 30.9409L57.6897 34.4151C57.8682 34.6327 58.0773 34.8233 58.3105 34.981C58.5326 35.1116 58.7841 35.1837 59.0416 35.1906V35.4683H56.7465L53.3771 31.1138L52.5858 31.1348V34.3312C52.5858 34.9041 52.9998 35.1905 53.8277 35.1906V35.4683H49.9448V35.1906C50.7447 35.1906 51.1447 34.9041 51.1448 34.3312V27.2256ZM52.5858 30.616C53.7001 30.5707 54.5323 30.4022 55.0826 30.1104C55.6331 29.8186 55.9082 29.3077 55.9081 28.5776C55.9081 27.9138 55.7011 27.4221 55.2872 27.1026C54.8054 26.7621 54.2231 26.5932 53.6338 26.623C53.395 26.6173 53.1561 26.6278 52.9187 26.6545C52.8649 26.6588 52.813 26.6761 52.7674 26.7049C52.7218 26.7336 52.6838 26.773 52.6567 26.8196C52.5989 26.9688 52.5747 27.1289 52.5858 27.2885V30.616Z" fill="#4C4C4C"/>
<path d="M59.1729 35.4683V35.1906C60.0008 35.1906 60.4147 34.9041 60.4147 34.3312V27.2256C60.4147 26.6528 60.0008 26.3663 59.1729 26.3663V26.0885H66.6819V28.106H66.3832C66.3171 27.7186 66.1364 27.3599 65.8644 27.0762C65.7204 26.9373 65.5492 26.8296 65.3617 26.7597C65.1742 26.6899 64.9743 26.6594 64.7745 26.6702H62.4793C62.3172 26.6636 62.1582 26.7157 62.0314 26.8169C61.9728 26.867 61.9264 26.93 61.896 27.0008C61.8655 27.0717 61.8518 27.1486 61.8558 27.2256V30.2754H63.8522C64.3024 30.2995 64.7502 30.1959 65.144 29.9767C65.4565 29.7776 65.6128 29.4195 65.6129 28.9025H65.9116V32.2299H65.6129C65.6129 31.713 65.4575 31.3541 65.1465 31.153C64.7526 30.9314 64.3035 30.8269 63.8522 30.8518H61.8558V34.3312C61.8558 34.7016 61.9763 34.8867 62.2173 34.8866H64.109C64.5155 34.8938 64.9217 34.8622 65.3222 34.7923C65.6722 34.7121 65.9953 34.5424 66.26 34.2998C66.622 33.9558 66.8992 33.5325 67.0697 33.0631H67.4574L66.8129 35.4683H59.1729Z" fill="#4C4C4C"/>
<path d="M67.6099 35.4683V35.1906C68.4378 35.1906 68.8518 34.9041 68.8518 34.3312V27.2256C68.8518 26.6528 68.4378 26.3663 67.6099 26.3663V26.0885H75.1189V28.106H74.8202C74.7541 27.7186 74.5734 27.3599 74.3015 27.0762C74.1574 26.9373 73.9863 26.8296 73.7988 26.7597C73.6112 26.6899 73.4113 26.6594 73.2115 26.6702H70.9164C70.7542 26.6636 70.5951 26.7157 70.4682 26.8169C70.4097 26.8671 70.3634 26.93 70.333 27.0009C70.3026 27.0717 70.2888 27.1486 70.2928 27.2256V30.2754H72.2893C72.7393 30.2995 73.1871 30.196 73.5808 29.9767C73.8936 29.7776 74.05 29.4195 74.0499 28.9025H74.3486V32.2299H74.0499C74.0499 31.713 73.8945 31.3541 73.5836 31.153C73.1896 30.9314 72.7406 30.8269 72.2893 30.8518H70.2928V34.3312C70.2928 34.7016 70.4133 34.8867 70.6544 34.8866H72.546C72.9524 34.8938 73.3586 34.8622 73.759 34.7923C74.1091 34.7121 74.4323 34.5424 74.6972 34.2998C75.0591 33.9557 75.3362 33.5324 75.5067 33.0631H75.8944L75.2499 35.4683H67.6099Z" fill="#4C4C4C"/>
<path d="M15.3312 38.1902V41.8681H14.8418V38.1902H15.3312Z" fill="#4C4C4C"/>
<path d="M17.8557 38.1902L19.7925 41.1726H19.8029V38.1902H20.2664V41.8681H19.7307L17.8094 38.9165H17.799V41.8681H17.3354V38.1902H17.8557Z" fill="#4C4C4C"/>
<path d="M23.1352 41.8681L21.8423 38.1902H22.3678L23.4186 41.3787H23.4289L24.49 38.1902H25L23.6916 41.8681H23.1352Z" fill="#4C4C4C"/>
<path d="M29.1157 38.1902V38.6023H27.0655V39.7716H28.9767V40.1837H27.0655V41.456H29.1311V41.8681H26.5762V38.1902H29.1157Z" fill="#4C4C4C"/>
<path d="M32.75 38.6924C32.5658 38.5677 32.3464 38.5054 32.1242 38.5147C32.0221 38.5146 31.9202 38.5249 31.8202 38.5455C31.7264 38.564 31.6366 38.5989 31.5549 38.6486C31.4779 38.6966 31.4142 38.763 31.3694 38.8419C31.3202 38.9344 31.2963 39.0383 31.3 39.1431C31.2978 39.1934 31.3055 39.2436 31.3228 39.2909C31.34 39.3382 31.3664 39.3816 31.4004 39.4187C31.4761 39.495 31.5675 39.5538 31.6683 39.5912C31.7909 39.6393 31.9176 39.6764 32.0468 39.7021C32.1877 39.7312 32.331 39.7629 32.4769 39.7972C32.623 39.8316 32.7664 39.872 32.907 39.9184C33.042 39.9618 33.1696 40.0252 33.2858 40.1064C33.3965 40.1845 33.488 40.2866 33.5537 40.4051C33.6247 40.5554 33.6589 40.7205 33.6535 40.8866C33.6481 41.0528 33.6033 41.2153 33.5226 41.3607C33.437 41.4978 33.3218 41.614 33.1854 41.7007C33.0436 41.79 32.8877 41.8545 32.7243 41.8914C32.5579 41.9304 32.3877 41.9502 32.2168 41.9505C32.0193 41.9516 31.8226 41.9257 31.6322 41.8734C31.4575 41.8263 31.2933 41.7467 31.148 41.6388C31.0078 41.5329 30.8948 41.3952 30.8183 41.237C30.7337 41.0559 30.6922 40.8576 30.6972 40.6577H31.1608C31.1571 40.7961 31.1881 40.9333 31.251 41.0568C31.3083 41.1652 31.3893 41.2594 31.488 41.3324C31.591 41.4069 31.7072 41.4611 31.8305 41.4921C31.9617 41.5266 32.0967 41.5439 32.2323 41.5437C32.3438 41.5436 32.455 41.5332 32.5645 41.5126C32.6701 41.4942 32.772 41.4585 32.8659 41.407C32.9616 41.3562 33.0406 41.2789 33.0936 41.1844C33.1465 41.0899 33.1712 40.9821 33.1646 40.874C33.1697 40.7622 33.134 40.6523 33.0642 40.5648C32.9906 40.4811 32.899 40.4151 32.7964 40.3718C32.6746 40.3187 32.5478 40.2781 32.4178 40.2506C32.277 40.2198 32.1336 40.188 31.9877 40.1553C31.8416 40.1228 31.6982 40.085 31.5576 40.0421C31.4243 40.0026 31.2969 39.9454 31.1788 39.8721C31.0692 39.8036 30.9774 39.7099 30.911 39.599C30.8399 39.4708 30.8052 39.3256 30.8106 39.1791C30.8063 39.0115 30.8453 38.8456 30.924 38.6975C30.9973 38.5642 31.1004 38.4497 31.2252 38.3627C31.3552 38.273 31.4999 38.2067 31.6528 38.167C31.8132 38.1239 31.9786 38.1023 32.1447 38.1026C32.3221 38.1012 32.4988 38.1237 32.6702 38.1695C32.8245 38.2108 32.969 38.2826 33.095 38.3807C33.2179 38.478 33.3167 38.6023 33.3837 38.744C33.4582 38.9083 33.4976 39.0863 33.4996 39.2667H33.0359C33.0326 39.1561 33.0053 39.0474 32.9559 38.9483C32.9066 38.8491 32.8363 38.7618 32.75 38.6924Z" fill="#4C4C4C"/>
<path d="M35.0396 38.6023V38.1902H37.9809V38.6023H36.7549V41.8681H36.2655V38.6023H35.0396Z" fill="#4C4C4C"/>
<path d="M40.2527 38.1902L41.4118 41.2808L42.5759 38.1902H43.2456V41.8681H42.782V38.8083H42.7717L41.6229 41.8681H41.2058L40.0569 38.8083H40.0467V41.8681H39.583V38.1902H40.2527Z" fill="#4C4C4C"/>
<path d="M47.7837 38.1902V38.6023H45.7336V39.7716H47.6445V40.1837H45.7336V41.456H47.7992V41.8681H45.2441V38.1902H47.7837Z" fill="#4C4C4C"/>
<path d="M50.0917 38.1902L52.0285 41.1726H52.0387V38.1902H52.5024V41.8681H51.9666L50.0452 38.9165H50.0349V41.8681H49.5713V38.1902H50.0917Z" fill="#4C4C4C"/>
<path d="M54.0889 38.6023V38.1902H57.0302V38.6023H55.8043V41.8681H55.3148V38.6023H54.0889Z" fill="#4C4C4C"/>
<path d="M60.4634 38.6924C60.2792 38.5677 60.0598 38.5054 59.8376 38.5147C59.7355 38.5146 59.6336 38.5249 59.5336 38.5455C59.4398 38.564 59.35 38.5989 59.2683 38.6486C59.1913 38.6966 59.1276 38.763 59.0828 38.8419C59.0336 38.9344 59.0097 39.0383 59.0134 39.1431C59.0112 39.1934 59.0189 39.2436 59.0362 39.2909C59.0534 39.3382 59.0798 39.3816 59.1138 39.4187C59.1895 39.495 59.2809 39.5538 59.3817 39.5912C59.5043 39.6393 59.631 39.6764 59.7602 39.7021C59.9011 39.7312 60.0444 39.7629 60.1903 39.7972C60.3364 39.8316 60.4798 39.872 60.6204 39.9184C60.7554 39.9618 60.883 40.0252 60.9992 40.1064C61.1098 40.1845 61.2014 40.2866 61.267 40.4051C61.3381 40.5554 61.3723 40.7205 61.3669 40.8866C61.3615 41.0528 61.3166 41.2153 61.236 41.3607C61.1504 41.4978 61.0352 41.614 60.8988 41.7007C60.757 41.79 60.6011 41.8545 60.4376 41.8914C60.2713 41.9304 60.101 41.9502 59.9302 41.9505C59.7327 41.9516 59.536 41.9257 59.3456 41.8734C59.1709 41.8263 59.0067 41.7467 58.8614 41.6388C58.7212 41.5329 58.6082 41.3952 58.5317 41.237C58.4471 41.0559 58.4056 40.8576 58.4106 40.6577H58.8742C58.8704 40.7961 58.9014 40.9333 58.9643 41.0568C59.0217 41.1652 59.1027 41.2594 59.2014 41.3324C59.3044 41.4069 59.4206 41.4611 59.5439 41.4921C59.675 41.5266 59.8101 41.5439 59.9457 41.5437C60.0572 41.5436 60.1684 41.5332 60.2779 41.5126C60.3835 41.4942 60.4853 41.4585 60.5793 41.407C60.675 41.3562 60.754 41.2789 60.807 41.1844C60.8599 41.0899 60.8846 40.9821 60.878 40.874C60.8831 40.7622 60.8474 40.6523 60.7776 40.5648C60.704 40.4811 60.6124 40.4151 60.5097 40.3718C60.388 40.3187 60.2611 40.2781 60.1312 40.2506C59.9903 40.2198 59.847 40.188 59.7011 40.1553C59.555 40.1228 59.4116 40.085 59.271 40.0421C59.1377 40.0026 59.0103 39.9454 58.8922 39.8721C58.7826 39.8036 58.6908 39.7099 58.6244 39.599C58.5533 39.4708 58.5186 39.3256 58.524 39.1791C58.5197 39.0115 58.5587 38.8456 58.6374 38.6975C58.7107 38.5642 58.8138 38.4497 58.9386 38.3627C59.0686 38.273 59.2133 38.2067 59.3662 38.167C59.5266 38.1239 59.692 38.1023 59.8581 38.1026C60.0355 38.1012 60.2122 38.1237 60.3836 38.1695C60.5379 38.2108 60.6824 38.2826 60.8084 38.3807C60.9313 38.478 61.0301 38.6023 61.0971 38.744C61.1716 38.9083 61.211 39.0863 61.213 39.2667H60.7493C60.746 39.1561 60.7186 39.0474 60.6693 38.9483C60.6199 38.8491 60.5497 38.7618 60.4634 38.6924Z" fill="#4C4C4C"/>
<path d="M13.7272 39.9756H0.235352V40.1903H13.7272V39.9756Z" fill="#4C4C4C"/>
<path d="M13.7262 40.1902H0.235352V40.4049H13.7262V40.1902Z" fill="#808080"/>
<path d="M75.901 39.9756H62.1401V40.1903H75.901V39.9756Z" fill="#4C4C4C"/>
<path d="M75.901 40.1902H62.1401V40.4049H75.901V40.1902Z" fill="#808080"/>
<path d="M16.9054 20.8719L25.9276 11.8497L35.2038 21.1256H16.6685" fill="#1764AA"/>
<path d="M27.1156 10.6424L37.7578 0L58.8814 21.1236H46.0034L37.7578 12.878L33.4115 17.2244L26.9814 10.7942" fill="#298AE2"/>
</svg>
